RobotoA2-YTLC584.ufo
<glyph name="b" format="2">
  <advance width="1170"/>
  <unicode hex="0062"/>
  <anchor x="585" y="0" name="bottom"/>
  <anchor x="585" y="1536" name="top"/>
  <outline>
    <contour>
      <point x="148" y="0" type="line"/>
      <point x="148" y="1536" type="line"/>
      <point x="334" y="1536" type="line"/>
      <point x="334" y="151" type="line"/>
      <point x="324" y="151" type="line"/>
      <point x="316" y="0" type="line"/>
    </contour>
    <contour>
      <point x="605" y="132" type="qcurve" smooth="yes"/>
      <point x="752" y="132"/>
      <point x="895" y="379"/>
      <point x="895" y="570" type="qcurve" smooth="yes"/>
      <point x="895" y="602" type="line" smooth="yes"/>
      <point x="895" y="793"/>
      <point x="752" y="1040"/>
      <point x="605" y="1040" type="qcurve" smooth="yes"/>
      <point x="448" y="1040"/>
      <point x="291" y="797"/>
      <point x="291" y="609" type="qcurve" smooth="yes"/>
      <point x="291" y="581" type="line" smooth="yes"/>
      <point x="291" y="385"/>
      <point x="448" y="132"/>
    </contour>
    <contour>
      <point x="645" y="-20" type="qcurve" smooth="yes"/>
      <point x="441" y="-20"/>
      <point x="224" y="318"/>
      <point x="224" y="580" type="qcurve" smooth="yes"/>
      <point x="224" y="614" type="line" smooth="yes"/>
      <point x="224" y="866"/>
      <point x="441" y="1192"/>
      <point x="645" y="1192" type="qcurve" smooth="yes"/>
      <point x="857" y="1192"/>
      <point x="1085" y="859"/>
      <point x="1085" y="602" type="qcurve" smooth="yes"/>
      <point x="1085" y="570" type="line" smooth="yes"/>
      <point x="1085" y="313"/>
      <point x="857" y="-20"/>
    </contour>
  </outline>
</glyph>
<glyph name="d" format="2">
  <advance width="1170"/>
  <unicode hex="0064"/>
  <anchor x="585" y="0" name="bottom"/>
  <anchor x="810" y="1313" name="center"/>
  <anchor x="585" y="1536" name="top"/>
  <anchor x="1122" y="1052" name="topright"/>
  <outline>
    <contour>
      <point x="836" y="1536" type="line"/>
      <point x="1022" y="1536" type="line"/>
      <point x="1022" y="0" type="line"/>
      <point x="854" y="0" type="line"/>
      <point x="846" y="147" type="line"/>
      <point x="836" y="147" type="line"/>
    </contour>
    <contour>
      <point x="565" y="1040" type="qcurve" smooth="yes"/>
      <point x="418" y="1040"/>
      <point x="275" y="793"/>
      <point x="275" y="602" type="qcurve" smooth="yes"/>
      <point x="275" y="570" type="line" smooth="yes"/>
      <point x="275" y="379"/>
      <point x="418" y="132"/>
      <point x="565" y="132" type="qcurve" smooth="yes"/>
      <point x="722" y="132"/>
      <point x="879" y="375"/>
      <point x="879" y="563" type="qcurve" smooth="yes"/>
      <point x="879" y="591" type="line" smooth="yes"/>
      <point x="879" y="787"/>
      <point x="722" y="1040"/>
    </contour>
    <contour>
      <point x="525" y="1192" type="qcurve" smooth="yes"/>
      <point x="729" y="1192"/>
      <point x="946" y="853"/>
      <point x="946" y="591" type="qcurve" smooth="yes"/>
      <point x="946" y="565" type="line" smooth="yes"/>
      <point x="946" y="310"/>
      <point x="729" y="-20"/>
      <point x="525" y="-20" type="qcurve" smooth="yes"/>
      <point x="313" y="-20"/>
      <point x="85" y="313"/>
      <point x="85" y="570" type="qcurve" smooth="yes"/>
      <point x="85" y="602" type="line" smooth="yes"/>
      <point x="85" y="859"/>
      <point x="313" y="1192"/>
    </contour>
  </outline>
</glyph>
<glyph name="h" format="2">
  <advance width="1138"/>
  <unicode hex="0068"/>
  <anchor x="569" y="0" name="bottom"/>
  <anchor x="320" y="1327" name="center"/>
  <anchor x="244" y="1536" name="top"/>
  <anchor x="907" y="0" name="engtail"/>
  <outline>
    <contour>
      <point x="334" y="0" type="line"/>
      <point x="148" y="0" type="line"/>
      <point x="148" y="1536" type="line"/>
      <point x="334" y="1536" type="line"/>
    </contour>
    <contour>
      <point x="254" y="917" type="line"/>
      <point x="321" y="1068"/>
      <point x="534" y="1202"/>
      <point x="664" y="1202" type="qcurve" smooth="yes"/>
      <point x="811" y="1202"/>
      <point x="1000" y="1021"/>
      <point x="1000" y="809" type="qcurve" smooth="yes"/>
      <point x="1000" y="0" type="line"/>
      <point x="814" y="0" type="line"/>
      <point x="814" y="811" type="line" smooth="yes"/>
      <point x="814" y="937"/>
      <point x="701" y="1046"/>
      <point x="597" y="1046" type="qcurve" smooth="yes"/>
      <point x="490" y="1046"/>
      <point x="329" y="902"/>
      <point x="254" y="709" type="qcurve"/>
    </contour>
  </outline>
</glyph>
<glyph name="m" format="2">
  <advance width="1764"/>
  <unicode hex="006D"/>
  <anchor x="882" y="0" name="bottom"/>
  <anchor x="882" y="1168" name="top"/>
  <outline>
    <contour>
      <point x="148" y="0" type="line"/>
      <point x="148" y="1168" type="line"/>
      <point x="316" y="1168" type="line"/>
      <point x="334" y="873" type="line"/>
      <point x="334" y="0" type="line"/>
    </contour>
    <contour>
      <point x="980" y="797" type="qcurve" smooth="yes"/>
      <point x="980" y="0" type="line"/>
      <point x="794" y="0" type="line"/>
      <point x="794" y="797" type="line" smooth="yes"/>
      <point x="794" y="923"/>
      <point x="686" y="1036"/>
      <point x="587" y="1036" type="qcurve" smooth="yes"/>
      <point x="496" y="1036"/>
      <point x="348" y="914"/>
      <point x="245" y="701" type="qcurve"/>
      <point x="245" y="880" type="line"/>
      <point x="321" y="1058"/>
      <point x="532" y="1192"/>
      <point x="642" y="1192" type="qcurve" smooth="yes"/>
      <point x="792" y="1192"/>
      <point x="980" y="1005"/>
    </contour>
    <contour>
      <point x="921" y="939" type="line"/>
      <point x="945" y="1032"/>
      <point x="1132" y="1192"/>
      <point x="1270" y="1192" type="qcurve" smooth="yes"/>
      <point x="1442" y="1192"/>
      <point x="1626" y="1007"/>
      <point x="1626" y="795" type="qcurve" smooth="yes"/>
      <point x="1626" y="0" type="line"/>
      <point x="1440" y="0" type="line"/>
      <point x="1440" y="797" type="line" smooth="yes"/>
      <point x="1440" y="923"/>
      <point x="1332" y="1036"/>
      <point x="1222" y="1036" type="qcurve" smooth="yes"/>
      <point x="1111" y="1036"/>
      <point x="959" y="851"/>
      <point x="921" y="701" type="qcurve"/>
    </contour>
  </outline>
</glyph>
<glyph name="q" format="2">
  <advance width="1170"/>
  <unicode hex="0071"/>
  <anchor x="585" y="0" name="bottom"/>
  <anchor x="585" y="1168" name="top"/>
  <outline>
    <contour>
      <point x="836" y="-416" type="line"/>
      <point x="836" y="1021" type="line"/>
      <point x="846" y="1021" type="line"/>
      <point x="854" y="1168" type="line"/>
      <point x="1022" y="1168" type="line"/>
      <point x="1022" y="-416" type="line"/>
    </contour>
    <contour>
      <point x="565" y="132" type="qcurve" smooth="yes"/>
      <point x="722" y="132"/>
      <point x="879" y="375"/>
      <point x="879" y="563" type="qcurve" smooth="yes"/>
      <point x="879" y="591" type="line" smooth="yes"/>
      <point x="879" y="787"/>
      <point x="722" y="1040"/>
      <point x="565" y="1040" type="qcurve" smooth="yes"/>
      <point x="418" y="1040"/>
      <point x="275" y="793"/>
      <point x="275" y="602" type="qcurve" smooth="yes"/>
      <point x="275" y="570" type="line" smooth="yes"/>
      <point x="275" y="379"/>
      <point x="418" y="132"/>
    </contour>
    <contour>
      <point x="525" y="-20" type="qcurve" smooth="yes"/>
      <point x="313" y="-20"/>
      <point x="85" y="313"/>
      <point x="85" y="570" type="qcurve" smooth="yes"/>
      <point x="85" y="602" type="line" smooth="yes"/>
      <point x="85" y="859"/>
      <point x="313" y="1192"/>
      <point x="525" y="1192" type="qcurve" smooth="yes"/>
      <point x="729" y="1192"/>
      <point x="946" y="853"/>
      <point x="946" y="591" type="qcurve" smooth="yes"/>
      <point x="946" y="565" type="line" smooth="yes"/>
      <point x="946" y="310"/>
      <point x="729" y="-20"/>
    </contour>
  </outline>
</glyph>
<glyph name="s" format="2">
  <advance width="1010"/>
  <unicode hex="0073"/>
  <anchor x="505" y="0" name="bottom"/>
  <anchor x="505" y="1168" name="top"/>
  <outline>
    <contour>
      <point x="80" y="330" type="line"/>
      <point x="266" y="330" type="line"/>
      <point x="266" y="325" type="line" smooth="yes"/>
      <point x="266" y="227"/>
      <point x="392" y="122"/>
      <point x="510" y="122" type="qcurve" smooth="yes"/>
      <point x="624" y="122"/>
      <point x="747" y="219"/>
      <point x="747" y="310" type="qcurve" smooth="yes"/>
      <point x="747" y="383"/>
      <point x="646" y="486"/>
      <point x="475" y="525" type="qcurve" smooth="yes"/>
      <point x="297" y="566"/>
      <point x="105" y="746"/>
      <point x="105" y="870" type="qcurve" smooth="yes"/>
      <point x="105" y="1015"/>
      <point x="328" y="1202"/>
      <point x="500" y="1202" type="qcurve" smooth="yes"/>
      <point x="675" y="1202"/>
      <point x="900" y="1006"/>
      <point x="900" y="855" type="qcurve" smooth="yes"/>
      <point x="900" y="850" type="line"/>
      <point x="715" y="850" type="line"/>
      <point x="715" y="859" type="line" smooth="yes"/>
      <point x="715" y="942"/>
      <point x="594" y="1050"/>
      <point x="500" y="1050" type="qcurve" smooth="yes"/>
      <point x="408" y="1050"/>
      <point x="289" y="954"/>
      <point x="289" y="880" type="qcurve" smooth="yes"/>
      <point x="289" y="816"/>
      <point x="400" y="719"/>
      <point x="575" y="680" type="qcurve" smooth="yes"/>
      <point x="746" y="642"/>
      <point x="930" y="453"/>
      <point x="930" y="320" type="qcurve" smooth="yes"/>
      <point x="930" y="151"/>
      <point x="712" y="-30"/>
      <point x="510" y="-30" type="qcurve" smooth="yes"/>
      <point x="303" y="-30"/>
      <point x="80" y="154"/>
      <point x="80" y="325" type="qcurve" smooth="yes"/>
    </contour>
  </outline>
</glyph>
<glyph name="v" format="2">
  <advance width="942"/>
  <unicode hex="0076"/>
  <anchor x="471" y="0" name="bottom"/>
  <anchor x="471" y="1168" name="top"/>
  <outline>
    <contour>
      <point x="0" y="1168" type="line"/>
      <point x="180" y="1168" type="line"/>
      <point x="434" y="400" type="line" smooth="yes"/>
      <point x="447" y="360"/>
      <point x="467" y="290"/>
      <point x="471" y="270" type="qcurve"/>
      <point x="477" y="270" type="line"/>
      <point x="481" y="290"/>
      <point x="501" y="360"/>
      <point x="514" y="400" type="qcurve" smooth="yes"/>
      <point x="766" y="1168" type="line"/>
      <point x="942" y="1168" type="line"/>
      <point x="542" y="0" type="line"/>
      <point x="400" y="0" type="line"/>
    </contour>
  </outline>
</glyph>
<glyph name="ae" format="2">
  <advance width="1772"/>
  <unicode hex="00E6"/>
  <anchor x="900" y="1168" name="top"/>
  <outline>
    <contour>
      <point x="450" y="-20" type="qcurve" smooth="yes"/>
      <point x="293" y="-20"/>
      <point x="90" y="183"/>
      <point x="90" y="340" type="qcurve" smooth="yes"/>
      <point x="90" y="501"/>
      <point x="343" y="708"/>
      <point x="539" y="708" type="qcurve" smooth="yes"/>
      <point x="868" y="708" type="line"/>
      <point x="868" y="576" type="line"/>
      <point x="559" y="576" type="line" smooth="yes"/>
      <point x="436" y="576"/>
      <point x="276" y="449"/>
      <point x="276" y="350" type="qcurve" smooth="yes"/>
      <point x="276" y="253"/>
      <point x="397" y="128"/>
      <point x="490" y="128" type="qcurve" smooth="yes"/>
      <point x="603" y="128"/>
      <point x="778" y="297"/>
      <point x="778" y="405" type="qcurve" smooth="yes"/>
      <point x="778" y="840" type="line" smooth="yes"/>
      <point x="778" y="935"/>
      <point x="680" y="1054"/>
      <point x="560" y="1054" type="qcurve" smooth="yes"/>
      <point x="440" y="1054"/>
      <point x="337" y="911"/>
      <point x="337" y="846" type="qcurve" smooth="yes"/>
      <point x="337" y="841" type="line"/>
      <point x="152" y="841" type="line"/>
      <point x="152" y="846" type="line" smooth="yes"/>
      <point x="152" y="971"/>
      <point x="375" y="1202"/>
      <point x="565" y="1202" type="qcurve" smooth="yes"/>
      <point x="693" y="1202"/>
      <point x="862" y="1102"/>
      <point x="902" y="1012" type="qcurve"/>
      <point x="954" y="1107"/>
      <point x="1139" y="1202"/>
      <point x="1245" y="1202" type="qcurve" smooth="yes"/>
      <point x="1460" y="1202"/>
      <point x="1692" y="874"/>
      <point x="1692" y="620" type="qcurve" smooth="yes"/>
      <point x="1692" y="544" type="line"/>
      <point x="883" y="544" type="line"/>
      <point x="883" y="692" type="line"/>
      <point x="1504" y="692" type="line"/>
      <point x="1505" y="716" type="line"/>
      <point x="1504" y="862"/>
      <point x="1382" y="1050"/>
      <point x="1253" y="1050" type="qcurve" smooth="yes"/>
      <point x="1119" y="1050"/>
      <point x="959" y="797"/>
      <point x="959" y="602" type="qcurve" smooth="yes"/>
      <point x="959" y="570" type="line" smooth="yes"/>
      <point x="959" y="375"/>
      <point x="1111" y="122"/>
      <point x="1275" y="122" type="qcurve" smooth="yes"/>
      <point x="1375" y="122"/>
      <point x="1519" y="210"/>
      <point x="1564" y="270" type="qcurve"/>
      <point x="1684" y="175" type="line"/>
      <point x="1634" y="100"/>
      <point x="1425" y="-30"/>
      <point x="1275" y="-30" type="qcurve" smooth="yes"/>
      <point x="1119" y="-30"/>
      <point x="906" y="86"/>
      <point x="848" y="221" type="qcurve"/>
      <point x="808" y="109"/>
      <point x="599" y="-20"/>
    </contour>
  </outline>
</glyph>
<glyph name="oe" format="2">
  <advance width="1889"/>
  <unicode hex="0153"/>
  <outline>
    <contour>
      <point x="581" y="-30" type="qcurve" smooth="yes"/>
      <point x="345" y="-30"/>
      <point x="85" y="308"/>
      <point x="85" y="570" type="qcurve" smooth="yes"/>
      <point x="85" y="602" type="line" smooth="yes"/>
      <point x="85" y="864"/>
      <point x="345" y="1202"/>
      <point x="581" y="1202" type="qcurve" smooth="yes"/>
      <point x="729" y="1202"/>
      <point x="935" y="1060"/>
      <point x="981" y="943" type="qcurve"/>
      <point x="1021" y="1060"/>
      <point x="1225" y="1202"/>
      <point x="1362" y="1202" type="qcurve" smooth="yes"/>
      <point x="1577" y="1202"/>
      <point x="1809" y="874"/>
      <point x="1809" y="620" type="qcurve" smooth="yes"/>
      <point x="1809" y="544" type="line"/>
      <point x="1000" y="544" type="line"/>
      <point x="1000" y="692" type="line"/>
      <point x="1622" y="692" type="line"/>
      <point x="1622" y="716" type="line" smooth="yes"/>
      <point x="1622" y="862"/>
      <point x="1500" y="1050"/>
      <point x="1370" y="1050" type="qcurve" smooth="yes"/>
      <point x="1222" y="1050"/>
      <point x="1076" y="797"/>
      <point x="1076" y="602" type="qcurve" smooth="yes"/>
      <point x="1076" y="570" type="line" smooth="yes"/>
      <point x="1076" y="375"/>
      <point x="1228" y="122"/>
      <point x="1392" y="122" type="qcurve" smooth="yes"/>
      <point x="1492" y="122"/>
      <point x="1636" y="210"/>
      <point x="1681" y="270" type="qcurve"/>
      <point x="1801" y="175" type="line"/>
      <point x="1751" y="100"/>
      <point x="1542" y="-30"/>
      <point x="1392" y="-30" type="qcurve" smooth="yes"/>
      <point x="1252" y="-30"/>
      <point x="1024" y="107"/>
      <point x="980" y="235" type="qcurve"/>
      <point x="940" y="107"/>
      <point x="711" y="-30"/>
    </contour>
    <contour>
      <point x="581" y="122" type="qcurve" smooth="yes"/>
      <point x="735" y="122"/>
      <point x="887" y="375"/>
      <point x="887" y="570" type="qcurve" smooth="yes"/>
      <point x="887" y="602" type="line" smooth="yes"/>
      <point x="887" y="797"/>
      <point x="735" y="1050"/>
      <point x="581" y="1050" type="qcurve" smooth="yes"/>
      <point x="427" y="1050"/>
      <point x="275" y="797"/>
      <point x="275" y="602" type="qcurve" smooth="yes"/>
      <point x="275" y="570" type="line" smooth="yes"/>
      <point x="275" y="375"/>
      <point x="427" y="122"/>
    </contour>
  </outline>
</glyph>
<glyph name="alpha" format="2">
  <advance width="1236"/>
  <unicode hex="03B1"/>
  <anchor x="550" y="1168" name="top"/>
  <outline>
    <contour>
      <point x="525" y="-30" type="qcurve" smooth="yes"/>
      <point x="313" y="-30"/>
      <point x="85" y="313"/>
      <point x="85" y="570" type="qcurve" smooth="yes"/>
      <point x="85" y="602" type="line" smooth="yes"/>
      <point x="85" y="858"/>
      <point x="313" y="1202"/>
      <point x="525" y="1202" type="qcurve" smooth="yes"/>
      <point x="729" y="1202"/>
      <point x="946" y="852"/>
      <point x="946" y="591" type="qcurve" smooth="yes"/>
      <point x="946" y="565" type="line" smooth="yes"/>
      <point x="946" y="310"/>
      <point x="729" y="-30"/>
    </contour>
    <contour>
      <point x="565" y="122" type="qcurve" smooth="yes"/>
      <point x="722" y="122"/>
      <point x="879" y="375"/>
      <point x="879" y="563" type="qcurve" smooth="yes"/>
      <point x="879" y="591" type="line" smooth="yes"/>
      <point x="879" y="785"/>
      <point x="722" y="1050"/>
      <point x="565" y="1050" type="qcurve" smooth="yes"/>
      <point x="418" y="1050"/>
      <point x="275" y="791"/>
      <point x="275" y="602" type="qcurve" smooth="yes"/>
      <point x="275" y="570" type="line" smooth="yes"/>
      <point x="275" y="379"/>
      <point x="418" y="122"/>
    </contour>
    <contour>
      <point x="1076" y="-30" type="qcurve" smooth="yes"/>
      <point x="979" y="-30"/>
      <point x="866" y="53"/>
      <point x="852" y="148" type="qcurve"/>
      <point x="836" y="148" type="line"/>
      <point x="836" y="1015" type="line"/>
      <point x="851" y="1015" type="line"/>
      <point x="859" y="1168" type="line"/>
      <point x="1022" y="1168" type="line"/>
      <point x="1022" y="262" type="line" smooth="yes"/>
      <point x="1022" y="187"/>
      <point x="1067" y="130"/>
      <point x="1117" y="130" type="qcurve"/>
      <point x="1132" y="130"/>
      <point x="1169" y="137"/>
      <point x="1186" y="144" type="qcurve"/>
      <point x="1186" y="-8" type="line"/>
      <point x="1167" y="-17"/>
      <point x="1110" y="-30"/>
    </contour>
  </outline>
</glyph>
<glyph name="epsilon" format="2">
  <advance width="1078"/>
  <unicode hex="03B5"/>
  <anchor x="573" y="1168" name="top"/>
  <outline>
    <contour>
      <point x="543" y="-30" type="qcurve"/>
      <point x="329" y="-30"/>
      <point x="99" y="149"/>
      <point x="99" y="316" type="qcurve" smooth="yes"/>
      <point x="99" y="440"/>
      <point x="243" y="585"/>
      <point x="376" y="596" type="qcurve"/>
      <point x="376" y="574" type="line"/>
      <point x="261" y="591"/>
      <point x="138" y="732"/>
      <point x="138" y="846" type="qcurve" smooth="yes"/>
      <point x="138" y="1017"/>
      <point x="363" y="1201"/>
      <point x="573" y="1201" type="qcurve" smooth="yes"/>
      <point x="785" y="1201"/>
      <point x="1014" y="993"/>
      <point x="1014" y="800" type="qcurve"/>
      <point x="834" y="800" type="line"/>
      <point x="834" y="920"/>
      <point x="699" y="1050"/>
      <point x="573" y="1050" type="qcurve" smooth="yes"/>
      <point x="454" y="1050"/>
      <point x="327" y="944"/>
      <point x="327" y="845" type="qcurve" smooth="yes"/>
      <point x="327" y="759"/>
      <point x="421" y="661"/>
      <point x="509" y="657" type="qcurve" smooth="yes"/>
      <point x="719" y="657" type="line"/>
      <point x="719" y="515" type="line"/>
      <point x="509" y="515" type="line" smooth="yes"/>
      <point x="403" y="515"/>
      <point x="289" y="417"/>
      <point x="289" y="326" type="qcurve" smooth="yes"/>
      <point x="289" y="228"/>
      <point x="426" y="122"/>
      <point x="553" y="122" type="qcurve"/>
      <point x="688" y="122"/>
      <point x="833" y="252"/>
      <point x="833" y="372" type="qcurve"/>
      <point x="1013" y="372" type="line"/>
      <point x="1013" y="178"/>
      <point x="769" y="-30"/>
    </contour>
  </outline>
</glyph>
<glyph name="kappa" format="2">
  <advance width="1043"/>
  <unicode hex="03BA"/>
  <outline>
    <contour>
      <point x="830" y="0" type="line"/>
      <point x="411" y="537" type="line"/>
      <point x="525" y="663" type="line"/>
      <point x="1058" y="0" type="line"/>
    </contour>
    <contour>
      <point x="241" y="670" type="line"/>
      <point x="420" y="670" type="line"/>
      <point x="805" y="1168" type="line"/>
      <point x="1023" y="1168" type="line"/>
      <point x="508" y="525" type="line"/>
      <point x="241" y="525" type="line"/>
    </contour>
    <contour>
      <point x="334" y="1168" type="line"/>
      <point x="334" y="0" type="line"/>
      <point x="148" y="0" type="line"/>
      <point x="148" y="1168" type="line"/>
    </contour>
  </outline>
</glyph>
<glyph name="lambda" format="2">
  <advance width="961"/>
  <unicode hex="03BB"/>
  <outline>
    <contour>
      <point x="0" y="0" type="line"/>
      <point x="403" y="1108" type="line"/>
      <point x="381" y="1170" type="line" smooth="yes"/>
      <point x="322" y="1337"/>
      <point x="237" y="1396"/>
      <point x="159" y="1396" type="qcurve" smooth="yes"/>
      <point x="133" y="1396"/>
      <point x="66" y="1389"/>
      <point x="40" y="1381" type="qcurve"/>
      <point x="40" y="1536" type="line"/>
      <point x="68" y="1546"/>
      <point x="137" y="1556"/>
      <point x="172" y="1556" type="qcurve" smooth="yes"/>
      <point x="296" y="1556"/>
      <point x="445" y="1474"/>
      <point x="502" y="1312" type="qcurve" smooth="yes"/>
      <point x="961" y="0" type="line"/>
      <point x="761" y="0" type="line"/>
      <point x="539" y="697" type="line" smooth="yes"/>
      <point x="521" y="753"/>
      <point x="503" y="817"/>
      <point x="491" y="868" type="qcurve"/>
      <point x="485" y="868" type="line"/>
      <point x="474" y="819"/>
      <point x="450" y="739"/>
      <point x="436" y="697" type="qcurve" smooth="yes"/>
      <point x="200" y="0" type="line"/>
    </contour>
  </outline>
</glyph>
<glyph name="xi" format="2">
  <advance width="920"/>
  <unicode hex="03BE"/>
  <outline>
    <contour>
      <point x="649" y="-348" type="line"/>
      <point x="672" y="-295"/>
      <point x="703" y="-195"/>
      <point x="703" y="-143" type="qcurve"/>
      <point x="703" y="-84"/>
      <point x="642" y="-28"/>
      <point x="558" y="-9" type="qcurve" smooth="yes"/>
      <point x="510" y="2" type="line" smooth="yes"/>
      <point x="267" y="57"/>
      <point x="85" y="239"/>
      <point x="85" y="428" type="qcurve"/>
      <point x="85" y="547"/>
      <point x="216" y="764"/>
      <point x="378" y="817" type="qcurve"/>
      <point x="378" y="793" type="line"/>
      <point x="262" y="841"/>
      <point x="135" y="975"/>
      <point x="133" y="1088" type="qcurve"/>
      <point x="133" y="1217"/>
      <point x="273" y="1350"/>
      <point x="432" y="1393" type="qcurve"/>
      <point x="432" y="1384" type="line"/>
      <point x="91" y="1384" type="line"/>
      <point x="91" y="1536" type="line"/>
      <point x="846" y="1536" type="line"/>
      <point x="846" y="1384" type="line"/>
      <point x="533" y="1365"/>
      <point x="312" y="1251"/>
      <point x="312" y="1112" type="qcurve" smooth="yes"/>
      <point x="312" y="1005"/>
      <point x="454" y="904"/>
      <point x="604" y="896" type="qcurve" smooth="yes"/>
      <point x="784" y="896" type="line"/>
      <point x="784" y="744" type="line"/>
      <point x="604" y="744" type="line" smooth="yes"/>
      <point x="435" y="744"/>
      <point x="275" y="568"/>
      <point x="275" y="441" type="qcurve"/>
      <point x="275" y="320"/>
      <point x="397" y="202"/>
      <point x="560" y="164" type="qcurve" smooth="yes"/>
      <point x="621" y="150" type="line" smooth="yes"/>
      <point x="776" y="114"/>
      <point x="881" y="6"/>
      <point x="881" y="-84" type="qcurve"/>
      <point x="881" y="-147"/>
      <point x="851" y="-278"/>
      <point x="819" y="-348" type="qcurve"/>
    </contour>
  </outline>
</glyph>
<glyph name="finalsigma" format="2">
  <advance width="1048"/>
  <unicode hex="03C2"/>
  <outline>
    <contour>
      <point x="639" y="-348" type="line"/>
      <point x="662" y="-295"/>
      <point x="693" y="-195"/>
      <point x="693" y="-143" type="qcurve"/>
      <point x="693" y="-84"/>
      <point x="632" y="-28"/>
      <point x="548" y="-9" type="qcurve" smooth="yes"/>
      <point x="500" y="2" type="line" smooth="yes"/>
      <point x="281" y="52"/>
      <point x="85" y="321"/>
      <point x="85" y="570" type="qcurve" smooth="yes"/>
      <point x="85" y="607" type="line" smooth="yes"/>
      <point x="85" y="867"/>
      <point x="345" y="1202"/>
      <point x="581" y="1202" type="qcurve" smooth="yes"/>
      <point x="796" y="1202"/>
      <point x="999" y="971"/>
      <point x="999" y="835" type="qcurve" smooth="yes"/>
      <point x="999" y="830" type="line"/>
      <point x="819" y="830" type="line"/>
      <point x="819" y="835" type="line" smooth="yes"/>
      <point x="819" y="920"/>
      <point x="701" y="1050"/>
      <point x="581" y="1050" type="qcurve"/>
      <point x="427" y="1050"/>
      <point x="275" y="806"/>
      <point x="275" y="617" type="qcurve" smooth="yes"/>
      <point x="275" y="578" type="line" smooth="yes"/>
      <point x="275" y="393"/>
      <point x="409" y="197"/>
      <point x="559" y="162" type="qcurve" smooth="yes"/>
      <point x="611" y="150" type="line" smooth="yes"/>
      <point x="767" y="114"/>
      <point x="871" y="6"/>
      <point x="871" y="-84" type="qcurve"/>
      <point x="871" y="-147"/>
      <point x="841" y="-278"/>
      <point x="809" y="-348" type="qcurve"/>
    </contour>
  </outline>
</glyph>
<glyph name="sigma" format="2">
  <advance width="1227"/>
  <unicode hex="03C3"/>
  <outline>
    <contour>
      <point x="581" y="-30" type="qcurve" smooth="yes"/>
      <point x="345" y="-30"/>
      <point x="85" y="292"/>
      <point x="85" y="541" type="qcurve" smooth="yes"/>
      <point x="85" y="572" type="line" smooth="yes"/>
      <point x="85" y="832"/>
      <point x="366" y="1168"/>
      <point x="690" y="1168" type="qcurve"/>
      <point x="1177" y="1168" type="line"/>
      <point x="1177" y="1016" type="line"/>
      <point x="846" y="1016" type="line"/>
      <point x="846" y="1029" type="line"/>
      <point x="947" y="987"/>
      <point x="1077" y="737"/>
      <point x="1077" y="586" type="qcurve" smooth="yes"/>
      <point x="1077" y="555" type="line" smooth="yes"/>
      <point x="1077" y="300"/>
      <point x="817" y="-30"/>
    </contour>
    <contour>
      <point x="581" y="122" type="qcurve" smooth="yes"/>
      <point x="735" y="122"/>
      <point x="887" y="366"/>
      <point x="887" y="555" type="qcurve" smooth="yes"/>
      <point x="887" y="586" type="line" smooth="yes"/>
      <point x="887" y="739"/>
      <point x="777" y="981"/>
      <point x="691" y="1015" type="qcurve"/>
      <point x="449" y="1021"/>
      <point x="275" y="777"/>
      <point x="275" y="582" type="qcurve" smooth="yes"/>
      <point x="275" y="551" type="line" smooth="yes"/>
      <point x="275" y="364"/>
      <point x="427" y="122"/>
    </contour>
  </outline>
</glyph>
<glyph name="kaisymbol" format="2">
  <advance width="1043"/>
  <unicode hex="03D7"/>
  <outline>
    <contour>
      <point x="148" y="0" type="line"/>
      <point x="148" y="1172" type="line"/>
      <point x="334" y="1172" type="line"/>
      <point x="334" y="0" type="line"/>
    </contour>
    <contour>
      <point x="254" y="525" type="line"/>
      <point x="254" y="670" type="line"/>
      <point x="420" y="670" type="line"/>
      <point x="805" y="1172" type="line"/>
      <point x="1023" y="1172" type="line"/>
      <point x="578" y="605" type="line"/>
      <point x="1048" y="13" type="line"/>
      <point x="349" y="-590" type="line"/>
      <point x="231" y="-454" type="line"/>
      <point x="805" y="28" type="line"/>
      <point x="422" y="525" type="line"/>
    </contour>
  </outline>
</glyph>
<glyph name="icyr" format="2">
  <advance width="1158"/>
  <unicode hex="0438"/>
  <anchor x="588" y="1168" name="top"/>
  <outline>
    <contour>
      <point x="148" y="0" type="line"/>
      <point x="148" y="1168" type="line"/>
      <point x="331" y="1168" type="line"/>
      <point x="331" y="433" type="line" smooth="yes"/>
      <point x="331" y="403"/>
      <point x="330" y="328"/>
      <point x="329" y="298" type="qcurve"/>
      <point x="339" y="298" type="line"/>
      <point x="353" y="323"/>
      <point x="389" y="381"/>
      <point x="407" y="413" type="qcurve" smooth="yes"/>
      <point x="824" y="1168" type="line"/>
      <point x="1010" y="1168" type="line"/>
      <point x="1010" y="0" type="line"/>
      <point x="827" y="0" type="line"/>
      <point x="827" y="734" type="line" smooth="yes"/>
      <point x="827" y="764"/>
      <point x="830" y="844"/>
      <point x="832" y="874" type="qcurve"/>
      <point x="817" y="874" type="line"/>
      <point x="805" y="849"/>
      <point x="769" y="786"/>
      <point x="751" y="754" type="qcurve" smooth="yes"/>
      <point x="334" y="0" type="line"/>
    </contour>
  </outline>
</glyph>
<glyph name="hard" format="2">
  <advance width="1220"/>
  <unicode hex="044A"/>
  <outline>
    <contour>
      <point x="320" y="0" type="line"/>
      <point x="320" y="1023" type="line"/>
      <point x="30" y="1023" type="line"/>
      <point x="30" y="1168" type="line"/>
      <point x="506" y="1168" type="line"/>
      <point x="506" y="145" type="line"/>
      <point x="748" y="145" type="line" smooth="yes"/>
      <point x="857" y="145"/>
      <point x="974" y="261"/>
      <point x="974" y="368" type="qcurve" smooth="yes"/>
      <point x="974" y="477"/>
      <point x="857" y="590"/>
      <point x="748" y="587" type="qcurve" smooth="yes"/>
      <point x="416" y="587" type="line"/>
      <point x="416" y="732" type="line"/>
      <point x="748" y="732" type="line" smooth="yes"/>
      <point x="947" y="732"/>
      <point x="1160" y="543"/>
      <point x="1160" y="368" type="qcurve" smooth="yes"/>
      <point x="1160" y="191"/>
      <point x="947" y="0"/>
      <point x="748" y="0" type="qcurve" smooth="yes"/>
    </contour>
  </outline>
</glyph>
<glyph name="kabashkircyr" format="2">
  <advance width="1215"/>
  <unicode hex="04A1"/>
  <outline>
    <contour>
      <point x="1002" y="0" type="line"/>
      <point x="583" y="537" type="line"/>
      <point x="697" y="663" type="line"/>
      <point x="1230" y="0" type="line"/>
    </contour>
    <contour>
      <point x="415" y="670" type="line"/>
      <point x="592" y="670" type="line"/>
      <point x="977" y="1168" type="line"/>
      <point x="1195" y="1168" type="line"/>
      <point x="680" y="525" type="line"/>
      <point x="415" y="525" type="line"/>
    </contour>
    <contour>
      <point x="506" y="1168" type="line"/>
      <point x="506" y="0" type="line"/>
      <point x="320" y="0" type="line"/>
      <point x="320" y="1023" type="line"/>
      <point x="30" y="1023" type="line"/>
      <point x="30" y="1168" type="line"/>
    </contour>
  </outline>
</glyph>
<glyph name="be.locl" format="2">
  <advance width="1162"/>
  <outline>
    <contour>
      <point x="275" y="552" type="qcurve" smooth="yes"/>
      <point x="275" y="520" type="line" smooth="yes"/>
      <point x="275" y="346"/>
      <point x="427" y="122"/>
      <point x="581" y="122" type="qcurve" smooth="yes"/>
      <point x="735" y="122"/>
      <point x="887" y="346"/>
      <point x="887" y="520" type="qcurve" smooth="yes"/>
      <point x="887" y="552" type="line" smooth="yes"/>
      <point x="887" y="721"/>
      <point x="735" y="940"/>
      <point x="581" y="940" type="qcurve" smooth="yes"/>
      <point x="427" y="940"/>
      <point x="275" y="721"/>
    </contour>
    <contour>
      <point x="85" y="520" type="qcurve" smooth="yes"/>
      <point x="85" y="552" type="line" smooth="yes"/>
      <point x="85" y="704"/>
      <point x="240" y="967"/>
      <point x="396" y="1019" type="qcurve"/>
      <point x="396" y="1023" type="line"/>
      <point x="264" y="1053"/>
      <point x="145" y="1156"/>
      <point x="145" y="1241" type="qcurve" smooth="yes"/>
      <point x="145" y="1370"/>
      <point x="339" y="1485"/>
      <point x="556" y="1485" type="qcurve" smooth="yes"/>
      <point x="653" y="1485" type="line" smooth="yes"/>
      <point x="759" y="1485"/>
      <point x="853" y="1503"/>
      <point x="862" y="1536" type="qcurve"/>
      <point x="1025" y="1536" type="line"/>
      <point x="1013" y="1422"/>
      <point x="855" y="1316"/>
      <point x="665" y="1316" type="qcurve" smooth="yes"/>
      <point x="568" y="1316" type="line" smooth="yes"/>
      <point x="428" y="1316"/>
      <point x="322" y="1285"/>
      <point x="322" y="1225" type="qcurve" smooth="yes"/>
      <point x="322" y="1154"/>
      <point x="518" y="1112"/>
      <point x="659" y="1088" type="qcurve" smooth="yes"/>
      <point x="841" y="1057"/>
      <point x="1077" y="755"/>
      <point x="1077" y="552" type="qcurve" smooth="yes"/>
      <point x="1077" y="520" type="line" smooth="yes"/>
      <point x="1077" y="280"/>
      <point x="817" y="-30"/>
      <point x="581" y="-30" type="qcurve" smooth="yes"/>
      <point x="345" y="-30"/>
      <point x="85" y="280"/>
    </contour>
  </outline>
</glyph>
<glyph name="el.bgr" format="2">
  <advance width="942"/>
  <outline>
    <contour>
      <point x="942" y="0" type="line"/>
      <point x="762" y="0" type="line"/>
      <point x="508" y="768" type="line" smooth="yes"/>
      <point x="495" y="808"/>
      <point x="475" y="878"/>
      <point x="471" y="898" type="qcurve"/>
      <point x="465" y="898" type="line"/>
      <point x="461" y="878"/>
      <point x="441" y="808"/>
      <point x="428" y="768" type="qcurve" smooth="yes"/>
      <point x="176" y="0" type="line"/>
      <point x="0" y="0" type="line"/>
      <point x="400" y="1168" type="line"/>
      <point x="542" y="1168" type="line"/>
    </contour>
  </outline>
</glyph>
<glyph name="ze.bgr" format="2">
  <advance width="992"/>
  <outline>
    <contour>
      <point x="25" y="-20" type="qcurve" smooth="yes"/>
      <point x="25" y="-10" type="line"/>
      <point x="205" y="-10" type="line"/>
      <point x="205" y="-20" type="line" smooth="yes"/>
      <point x="205" y="-143"/>
      <point x="343" y="-276"/>
      <point x="471" y="-276" type="qcurve" smooth="yes"/>
      <point x="599" y="-276"/>
      <point x="736" y="-117"/>
      <point x="736" y="30" type="qcurve" smooth="yes"/>
      <point x="736" y="198"/>
      <point x="590" y="352"/>
      <point x="452" y="352" type="qcurve" smooth="yes"/>
      <point x="344" y="352" type="line"/>
      <point x="344" y="506" type="line"/>
      <point x="443" y="506" type="line" smooth="yes"/>
      <point x="560" y="506"/>
      <point x="686" y="653"/>
      <point x="686" y="790" type="qcurve" smooth="yes"/>
      <point x="686" y="914"/>
      <point x="575" y="1048"/>
      <point x="471" y="1048" type="qcurve" smooth="yes"/>
      <point x="362" y="1048"/>
      <point x="245" y="919"/>
      <point x="245" y="800" type="qcurve" smooth="yes"/>
      <point x="245" y="790" type="line"/>
      <point x="65" y="790" type="line"/>
      <point x="65" y="800" type="line" smooth="yes"/>
      <point x="65" y="994"/>
      <point x="275" y="1202"/>
      <point x="471" y="1202" type="qcurve" smooth="yes"/>
      <point x="663" y="1202"/>
      <point x="870" y="994"/>
      <point x="870" y="800" type="qcurve" smooth="yes"/>
      <point x="870" y="670"/>
      <point x="757" y="481"/>
      <point x="652" y="436" type="qcurve"/>
      <point x="652" y="432" type="line"/>
      <point x="782" y="403"/>
      <point x="922" y="196"/>
      <point x="922" y="31" type="qcurve"/>
      <point x="922" y="-181"/>
      <point x="668" y="-430"/>
      <point x="471" y="-430" type="qcurve" smooth="yes"/>
      <point x="276" y="-430"/>
      <point x="25" y="-208"/>
    </contour>
  </outline>
</glyph>
